<svg xmlns="http://www.w3.org/2000/svg" xmlns:xlink="http://www.w3.org/1999/xlink" width="442.685" height="442.685" viewBox="0 0 442.685 442.685"><defs><clipPath id="a"><path d="M419.243,209.761v5.264c-1.447,114.133-94.762,205.69-208.9,204.967S4.055,326.535,4.055,212.393,96.2,5.518,210.341,4.794,417.8,95.628,419.243,209.761Z" transform="translate(-4.055 -4.79)" fill="#d42b36"/></clipPath></defs><g transform="translate(791 -562.763)"><path d="M419.243,209.761v5.264c-1.447,114.133-94.762,205.69-208.9,204.967S4.055,326.535,4.055,212.393,96.2,5.518,210.341,4.794,417.8,95.628,419.243,209.761Z" transform="translate(-781.23 574.378)" fill="#d42b36"/><g transform="translate(-777.175 579.169)" clip-path="url(#a)"><path d="M367.589,147.541a207.978,207.978,0,0,1-122.5,184.292h0L25.39,170,230.258,32.7Z" transform="translate(47.531 62.693)" fill="#b7202d"/></g><path d="M80.257,189.645V169.719a28.505,28.505,0,0,1,28.471-28.676,27.924,27.924,0,0,1,27.343,27.924v20.507a63.846,63.846,0,0,0,63.846,63.983,65.561,65.561,0,0,0,12.749-1.265,63.983,63.983,0,0,0,51.063-62.547V78.461a47.509,47.509,0,0,0-69.383-42.177l-159.923,92.9a26.249,26.249,0,0,0,0,45.048l47.338,34.623a122.085,122.085,0,0,1-1.5-19.209Z" transform="translate(-738.677 637.628)" fill="#fff"/><path d="M221.352,442.675C99.1,442.675,0,343.569.01,221.321S99.115-.016,221.364-.01,442.7,99.1,442.695,221.344v5.662A222.744,222.744,0,0,1,312.131,423.364,220.281,220.281,0,0,1,221.352,442.675Zm0-415.307c-106.534,0-193.14,85.883-194.033,192.406s84.254,193.843,190.766,195.633,194.549-82.625,197.233-189.118c0-1.709,0-3.418,0-4.922C415.2,114.284,328.435,27.5,221.352,27.367Z" transform="translate(-791.01 562.773)" fill="#fff"/></g></svg>